<mxfile host="Electron" modified="2023-07-07T10:53:04.146Z" agent="Mozilla/5.0 (Macintosh; Intel Mac OS X 10_15_7) AppleWebKit/537.36 (KHTML, like Gecko) draw.io/21.1.2 Chrome/106.0.5249.199 Electron/21.4.3 Safari/537.36" etag="Wrpckn75vxjy8D9sUgvq" version="21.1.2" type="device">
  <diagram name="第 1 页" id="jj5cGkblPpHr04jUtUaV">
    <mxGraphModel dx="1434" dy="777" grid="1" gridSize="10" guides="1" tooltips="1" connect="1" arrows="1" fold="1" page="1" pageScale="1" pageWidth="1654" pageHeight="2336" math="0" shadow="0">
      <root>
        <mxCell id="0" />
        <mxCell id="1" parent="0" />
        <mxCell id="4YH0pfp5H0VTVIzaMVEp-54" value="" style="rounded=0;whiteSpace=wrap;html=1;" vertex="1" parent="1">
          <mxGeometry x="60" y="200" width="890" height="620" as="geometry" />
        </mxCell>
        <mxCell id="4YH0pfp5H0VTVIzaMVEp-5" style="edgeStyle=orthogonalEdgeStyle;rounded=0;orthogonalLoop=1;jettySize=auto;html=1;" edge="1" parent="1" source="4YH0pfp5H0VTVIzaMVEp-1" target="4YH0pfp5H0VTVIzaMVEp-2">
          <mxGeometry relative="1" as="geometry" />
        </mxCell>
        <mxCell id="4YH0pfp5H0VTVIzaMVEp-39" value="" style="edgeStyle=orthogonalEdgeStyle;rounded=0;orthogonalLoop=1;jettySize=auto;html=1;" edge="1" parent="1" source="4YH0pfp5H0VTVIzaMVEp-1" target="4YH0pfp5H0VTVIzaMVEp-2">
          <mxGeometry relative="1" as="geometry" />
        </mxCell>
        <mxCell id="4YH0pfp5H0VTVIzaMVEp-1" value="多语种数据" style="rounded=1;whiteSpace=wrap;html=1;fontSize=14;fillColor=#dae8fc;strokeColor=#6c8ebf;" vertex="1" parent="1">
          <mxGeometry x="260" y="670" width="120" height="60" as="geometry" />
        </mxCell>
        <mxCell id="4YH0pfp5H0VTVIzaMVEp-6" style="edgeStyle=orthogonalEdgeStyle;rounded=0;orthogonalLoop=1;jettySize=auto;html=1;entryX=0.5;entryY=1;entryDx=0;entryDy=0;" edge="1" parent="1" source="4YH0pfp5H0VTVIzaMVEp-2" target="4YH0pfp5H0VTVIzaMVEp-3">
          <mxGeometry relative="1" as="geometry" />
        </mxCell>
        <mxCell id="4YH0pfp5H0VTVIzaMVEp-2" value="数据预处理" style="rounded=1;whiteSpace=wrap;html=1;fontSize=14;fillColor=#fff2cc;strokeColor=#d6b656;" vertex="1" parent="1">
          <mxGeometry x="260" y="570" width="120" height="60" as="geometry" />
        </mxCell>
        <mxCell id="4YH0pfp5H0VTVIzaMVEp-8" style="edgeStyle=orthogonalEdgeStyle;rounded=0;orthogonalLoop=1;jettySize=auto;html=1;" edge="1" parent="1" source="4YH0pfp5H0VTVIzaMVEp-3" target="4YH0pfp5H0VTVIzaMVEp-4">
          <mxGeometry relative="1" as="geometry" />
        </mxCell>
        <mxCell id="4YH0pfp5H0VTVIzaMVEp-3" value="模型训练与测试" style="rounded=1;whiteSpace=wrap;html=1;fontSize=14;fillColor=#fff2cc;strokeColor=#d6b656;" vertex="1" parent="1">
          <mxGeometry x="260" y="480" width="120" height="60" as="geometry" />
        </mxCell>
        <mxCell id="4YH0pfp5H0VTVIzaMVEp-12" style="edgeStyle=orthogonalEdgeStyle;rounded=0;orthogonalLoop=1;jettySize=auto;html=1;" edge="1" parent="1" source="4YH0pfp5H0VTVIzaMVEp-4" target="4YH0pfp5H0VTVIzaMVEp-10">
          <mxGeometry relative="1" as="geometry" />
        </mxCell>
        <mxCell id="4YH0pfp5H0VTVIzaMVEp-4" value="模型上线/迭代" style="rounded=1;whiteSpace=wrap;html=1;fontSize=13;fillColor=#fff2cc;strokeColor=#d6b656;" vertex="1" parent="1">
          <mxGeometry x="260" y="370" width="120" height="60" as="geometry" />
        </mxCell>
        <mxCell id="4YH0pfp5H0VTVIzaMVEp-11" style="edgeStyle=orthogonalEdgeStyle;rounded=0;orthogonalLoop=1;jettySize=auto;html=1;entryX=0;entryY=0.5;entryDx=0;entryDy=0;" edge="1" parent="1" source="4YH0pfp5H0VTVIzaMVEp-9" target="4YH0pfp5H0VTVIzaMVEp-10">
          <mxGeometry relative="1" as="geometry" />
        </mxCell>
        <mxCell id="4YH0pfp5H0VTVIzaMVEp-9" value="多语种待识别数据" style="rounded=1;whiteSpace=wrap;html=1;fillColor=#dae8fc;strokeColor=#6c8ebf;" vertex="1" parent="1">
          <mxGeometry x="90" y="240" width="120" height="60" as="geometry" />
        </mxCell>
        <mxCell id="4YH0pfp5H0VTVIzaMVEp-26" style="edgeStyle=orthogonalEdgeStyle;rounded=0;orthogonalLoop=1;jettySize=auto;html=1;" edge="1" parent="1" source="4YH0pfp5H0VTVIzaMVEp-10" target="4YH0pfp5H0VTVIzaMVEp-25">
          <mxGeometry relative="1" as="geometry" />
        </mxCell>
        <mxCell id="4YH0pfp5H0VTVIzaMVEp-10" value="算法平台" style="ellipse;whiteSpace=wrap;html=1;fillColor=#d5e8d4;strokeColor=#82b366;" vertex="1" parent="1">
          <mxGeometry x="260" y="230" width="120" height="80" as="geometry" />
        </mxCell>
        <mxCell id="4YH0pfp5H0VTVIzaMVEp-29" style="edgeStyle=orthogonalEdgeStyle;rounded=0;orthogonalLoop=1;jettySize=auto;html=1;" edge="1" parent="1" source="4YH0pfp5H0VTVIzaMVEp-13" target="4YH0pfp5H0VTVIzaMVEp-28">
          <mxGeometry relative="1" as="geometry" />
        </mxCell>
        <mxCell id="4YH0pfp5H0VTVIzaMVEp-13" value="AB测试平台" style="ellipse;whiteSpace=wrap;html=1;fillColor=#d5e8d4;strokeColor=#82b366;" vertex="1" parent="1">
          <mxGeometry x="720" y="330" width="120" height="80" as="geometry" />
        </mxCell>
        <mxCell id="4YH0pfp5H0VTVIzaMVEp-44" style="edgeStyle=orthogonalEdgeStyle;rounded=0;orthogonalLoop=1;jettySize=auto;html=1;" edge="1" parent="1" source="4YH0pfp5H0VTVIzaMVEp-16" target="4YH0pfp5H0VTVIzaMVEp-43">
          <mxGeometry relative="1" as="geometry" />
        </mxCell>
        <mxCell id="4YH0pfp5H0VTVIzaMVEp-16" value="数据管理平台" style="ellipse;whiteSpace=wrap;html=1;fillColor=#d5e8d4;strokeColor=#82b366;" vertex="1" parent="1">
          <mxGeometry x="550" y="430" width="120" height="80" as="geometry" />
        </mxCell>
        <mxCell id="4YH0pfp5H0VTVIzaMVEp-32" value="" style="edgeStyle=orthogonalEdgeStyle;rounded=0;orthogonalLoop=1;jettySize=auto;html=1;" edge="1" parent="1" source="4YH0pfp5H0VTVIzaMVEp-20" target="4YH0pfp5H0VTVIzaMVEp-31">
          <mxGeometry relative="1" as="geometry" />
        </mxCell>
        <mxCell id="4YH0pfp5H0VTVIzaMVEp-20" value="人工标注平台" style="ellipse;whiteSpace=wrap;html=1;fillColor=#d5e8d4;strokeColor=#82b366;" vertex="1" parent="1">
          <mxGeometry x="720" y="530" width="120" height="80" as="geometry" />
        </mxCell>
        <mxCell id="4YH0pfp5H0VTVIzaMVEp-27" style="edgeStyle=orthogonalEdgeStyle;rounded=0;orthogonalLoop=1;jettySize=auto;html=1;" edge="1" parent="1" source="4YH0pfp5H0VTVIzaMVEp-25" target="4YH0pfp5H0VTVIzaMVEp-13">
          <mxGeometry relative="1" as="geometry" />
        </mxCell>
        <mxCell id="4YH0pfp5H0VTVIzaMVEp-50" style="edgeStyle=orthogonalEdgeStyle;rounded=0;orthogonalLoop=1;jettySize=auto;html=1;" edge="1" parent="1" source="4YH0pfp5H0VTVIzaMVEp-25" target="4YH0pfp5H0VTVIzaMVEp-16">
          <mxGeometry relative="1" as="geometry" />
        </mxCell>
        <mxCell id="4YH0pfp5H0VTVIzaMVEp-25" value="语音数据识别结果" style="rounded=1;whiteSpace=wrap;html=1;fillColor=#dae8fc;strokeColor=#6c8ebf;" vertex="1" parent="1">
          <mxGeometry x="550" y="240" width="120" height="60" as="geometry" />
        </mxCell>
        <mxCell id="4YH0pfp5H0VTVIzaMVEp-30" style="edgeStyle=orthogonalEdgeStyle;rounded=0;orthogonalLoop=1;jettySize=auto;html=1;entryX=0.5;entryY=0;entryDx=0;entryDy=0;" edge="1" parent="1" source="4YH0pfp5H0VTVIzaMVEp-28" target="4YH0pfp5H0VTVIzaMVEp-20">
          <mxGeometry relative="1" as="geometry" />
        </mxCell>
        <mxCell id="4YH0pfp5H0VTVIzaMVEp-51" style="edgeStyle=orthogonalEdgeStyle;rounded=0;orthogonalLoop=1;jettySize=auto;html=1;entryX=1;entryY=0.5;entryDx=0;entryDy=0;" edge="1" parent="1" source="4YH0pfp5H0VTVIzaMVEp-28" target="4YH0pfp5H0VTVIzaMVEp-16">
          <mxGeometry relative="1" as="geometry" />
        </mxCell>
        <mxCell id="4YH0pfp5H0VTVIzaMVEp-28" value="AB筛选文本结果" style="rounded=1;whiteSpace=wrap;html=1;fillColor=#dae8fc;strokeColor=#6c8ebf;" vertex="1" parent="1">
          <mxGeometry x="720" y="440" width="120" height="60" as="geometry" />
        </mxCell>
        <mxCell id="4YH0pfp5H0VTVIzaMVEp-53" style="edgeStyle=orthogonalEdgeStyle;rounded=0;orthogonalLoop=1;jettySize=auto;html=1;entryX=1;entryY=1;entryDx=0;entryDy=0;" edge="1" parent="1" source="4YH0pfp5H0VTVIzaMVEp-31" target="4YH0pfp5H0VTVIzaMVEp-16">
          <mxGeometry relative="1" as="geometry">
            <Array as="points">
              <mxPoint x="690" y="670" />
              <mxPoint x="690" y="498" />
            </Array>
          </mxGeometry>
        </mxCell>
        <mxCell id="4YH0pfp5H0VTVIzaMVEp-31" value="人工标注结果" style="rounded=1;whiteSpace=wrap;html=1;fillColor=#dae8fc;strokeColor=#6c8ebf;" vertex="1" parent="1">
          <mxGeometry x="720" y="640" width="120" height="60" as="geometry" />
        </mxCell>
        <mxCell id="4YH0pfp5H0VTVIzaMVEp-49" value="" style="edgeStyle=orthogonalEdgeStyle;rounded=0;orthogonalLoop=1;jettySize=auto;html=1;" edge="1" parent="1" source="4YH0pfp5H0VTVIzaMVEp-42" target="4YH0pfp5H0VTVIzaMVEp-45">
          <mxGeometry relative="1" as="geometry" />
        </mxCell>
        <mxCell id="4YH0pfp5H0VTVIzaMVEp-42" value="数据预处理" style="rounded=1;whiteSpace=wrap;html=1;fontSize=14;fillColor=#fff2cc;strokeColor=#d6b656;" vertex="1" parent="1">
          <mxGeometry x="400" y="570" width="120" height="60" as="geometry" />
        </mxCell>
        <mxCell id="4YH0pfp5H0VTVIzaMVEp-48" value="" style="edgeStyle=orthogonalEdgeStyle;rounded=0;orthogonalLoop=1;jettySize=auto;html=1;" edge="1" parent="1" source="4YH0pfp5H0VTVIzaMVEp-43" target="4YH0pfp5H0VTVIzaMVEp-42">
          <mxGeometry relative="1" as="geometry" />
        </mxCell>
        <mxCell id="4YH0pfp5H0VTVIzaMVEp-43" value="高质量多语种数据" style="rounded=1;whiteSpace=wrap;html=1;fillColor=#dae8fc;strokeColor=#6c8ebf;" vertex="1" parent="1">
          <mxGeometry x="550" y="570" width="120" height="60" as="geometry" />
        </mxCell>
        <mxCell id="4YH0pfp5H0VTVIzaMVEp-47" style="edgeStyle=orthogonalEdgeStyle;rounded=0;orthogonalLoop=1;jettySize=auto;html=1;entryX=1;entryY=0.5;entryDx=0;entryDy=0;exitX=0.5;exitY=0;exitDx=0;exitDy=0;" edge="1" parent="1" source="4YH0pfp5H0VTVIzaMVEp-45" target="4YH0pfp5H0VTVIzaMVEp-4">
          <mxGeometry relative="1" as="geometry" />
        </mxCell>
        <mxCell id="4YH0pfp5H0VTVIzaMVEp-45" value="模型微调" style="rounded=1;whiteSpace=wrap;html=1;fontSize=14;fillColor=#fff2cc;strokeColor=#d6b656;" vertex="1" parent="1">
          <mxGeometry x="400" y="480" width="120" height="60" as="geometry" />
        </mxCell>
      </root>
    </mxGraphModel>
  </diagram>
</mxfile>
